# File created by Blade
# Date/Time:  Tue Apr 07 20:45:22 2015
# Frame Rate: 120.000 fps
#------------------------------------------------------
:FULLY-SPECIFIED
:DEGREES
636
root 1.570667 34.135274 -4.051224 18.131636 -22.720804 -49.786008
Spine -0.137954 27.389293 31.247277
Head 10.338861 -3.373278 19.822977
LeftShoulder -21.837764 23.487379 35.141118
LeftArm 88.733348 -81.817934 -66.795216
LeftForeArm 15.587334 -0.000000 17.982962
LeftHand 9.017541 -0.000000 17.462667
LeftHandThumb1 -26.253704 0.000000 33.147579
RightShoulder -9.233779 30.699360 -33.081115
RightArm 67.713969 77.055222 106.169728
RightForeArm 42.066828 0.000000 58.614673
RightHand 1.018506 -0.000000 29.823205
RightHandThumb1 -24.326973 -0.000000 -32.862282
LeftUpLeg -1.818866 -10.069471 40.152736
LeftLeg 24.182897 -0.000000 -0.000000
LeftFoot -19.089593 28.741115 -14.579398
LeftToeBase -14.384991 -0.000000 0.000000
RightUpLeg -134.732921 -55.839041 19.199113
RightLeg -12.567727 -0.000000 0.000000
RightFoot 38.924969 -25.765305 15.924490
RightToeBase 15.442421 -0.000000 -0.000000
637
root 1.582488 34.150273 -4.037226 18.295500 -22.714455 -49.841773
Spine -0.118018 27.429724 31.360584
Head 10.088165 -3.273556 19.674127
LeftShoulder -21.894248 23.467830 35.119086
LeftArm 89.039113 -81.912439 -67.165574
LeftForeArm 15.611240 -0.000000 18.036147
LeftHand 9.008385 -0.000000 17.366135
LeftHandThumb1 -26.253704 0.000000 33.147579
RightShoulder -9.240737 30.731445 -33.108724
RightArm 67.540676 77.086529 105.990625
RightForeArm 42.034547 -0.000000 58.522132
RightHand 1.050704 -0.000000 29.826185
RightHandThumb1 -24.326973 -0.000000 -32.862282
LeftUpLeg -1.906924 -10.085973 40.147156
LeftLeg 24.140924 -0.000000 -0.000000
LeftFoot -18.618765 29.080469 -14.023309
LeftToeBase -14.831750 -0.000000 0.000000
RightUpLeg -134.626727 -55.842453 19.176929
RightLeg -12.540022 -0.000000 0.000000
RightFoot 38.943559 -25.936653 15.947673
RightToeBase 15.530367 -0.000000 -0.000000
638
root 1.596300 34.163286 -4.022873 18.429307 -22.706339 -49.868810
Spine -0.071838 27.437924 31.468016
Head 9.842192 -3.114184 19.493862
LeftShoulder -21.877063 23.367294 35.168104
LeftArm 88.859147 -82.012326 -67.167137
LeftForeArm 15.608472 -0.000000 18.155131
LeftHand 8.997101 -0.000000 17.412953
LeftHandThumb1 -26.253704 0.000000 33.147579
RightShoulder -9.188064 30.586622 -33.070829
RightArm 68.330551 77.077578 106.724227
RightForeArm 41.981663 -0.000000 58.433496
RightHand 1.039769 -0.000000 29.858267
RightHandThumb1 -24.326973 -0.000000 -32.862282
LeftUpLeg -1.982240 -10.154122 40.102441
LeftLeg 24.082123 -0.000000 -0.000000
LeftFoot -18.212934 29.450791 -13.496445
LeftToeBase -15.106163 -0.000000 0.000000
RightUpLeg -134.535404 -55.854654 19.141549
RightLeg -12.451226 -0.000000 0.000000
RightFoot 39.007276 -25.931784 15.963265
RightToeBase 15.379107 -0.000000 -0.000000
639
root 1.610638 34.176117 -4.007222 18.567769 -22.706257 -49.884197
Spine -0.051220 27.498007 31.553085
Head 9.635757 -3.028971 19.340695
LeftShoulder -21.873074 23.369089 35.161874
LeftArm 89.836129 -82.101988 -68.283273
LeftForeArm 15.640791 -0.000000 18.275764
LeftHand 8.947835 -0.000000 17.473851
LeftHandThumb1 -26.253704 0.000000 33.147579
RightShoulder -9.234152 30.672155 -33.125683
RightArm 67.977417 77.112252 106.392860
RightForeArm 41.891996 0.000000 58.329544
RightHand 1.056674 -0.000000 29.886806
RightHandThumb1 -24.326973 -0.000000 -32.862282
LeftUpLeg -2.051083 -10.246073 40.033580
LeftLeg 24.008021 -0.000000 -0.000000
LeftFoot -17.806412 29.879000 -12.993860
LeftToeBase -15.290080 -0.000000 0.000000
RightUpLeg -134.432432 -55.862214 19.086682
RightLeg -12.369227 -0.000000 0.000000
RightFoot 39.004721 -25.891327 15.992003
RightToeBase 15.465493 -0.000000 -0.000000
640
root 1.626277 34.188427 -3.994162 18.746034 -22.729365 -49.929293
Spine -0.043299 27.551792 31.668606
Head 9.510402 -2.853282 19.162547
LeftShoulder -21.853184 23.307227 35.191740
LeftArm 90.284065 -82.150764 -68.901617
LeftForeArm 15.667039 -0.000000 18.366197
LeftHand 8.974641 -0.000000 17.564858
LeftHandThumb1 -26.253704 0.000000 33.147579
RightShoulder -9.193329 30.612099 -33.107206
RightArm 68.348971 77.089054 106.749949
RightForeArm 41.774593 0.000000 58.273845
RightHand 1.057218 -0.000000 29.840964
RightHandThumb1 -24.326973 -0.000000 -32.862282
LeftUpLeg -2.118206 -10.311436 39.986916
LeftLeg 23.928840 -0.000000 -0.000000
LeftFoot -17.382012 30.366351 -12.463496
LeftToeBase -15.415953 -0.000000 0.000000
RightUpLeg -134.321494 -55.829727 19.053188
RightLeg -12.336982 -0.000000 0.000000
RightFoot 39.091541 -25.922997 15.971143
RightToeBase 15.402963 -0.000000 -0.000000
641
root 1.643001 34.199690 -3.981367 18.922899 -22.748900 -49.949920
Spine -0.060943 27.609837 31.747216
Head 9.399796 -2.700658 19.001202
LeftShoulder -21.868322 23.317703 35.167361
LeftArm 91.075581 -82.191294 -69.783112
LeftForeArm 15.657459 0.000000 18.392102
LeftHand 8.865152 -0.000000 17.708940
LeftHandThumb1 -26.253704 0.000000 33.147579
RightShoulder -9.166535 30.669051 -33.100559
RightArm 67.931428 77.099990 106.311149
RightForeArm 41.790517 -0.000000 58.204125
RightHand 1.129944 -0.000000 29.686739
RightHandThumb1 -24.326973 -0.000000 -32.862282
LeftUpLeg -2.204434 -10.392701 39.920442
LeftLeg 23.867452 -0.000000 -0.000000
LeftFoot -17.058246 30.729770 -12.084467
LeftToeBase -14.992682 -0.000000 0.000000
RightUpLeg -134.249343 -55.802482 19.022145
RightLeg -12.282743 -0.000000 0.000000
RightFoot 39.115271 -25.976033 16.038688
RightToeBase 15.424519 -0.000000 -0.000000
